<svg width="1440" height="1494" viewBox="0 0 1440 1494" fill="none" xmlns="http://www.w3.org/2000/svg">
<g opacity="0.4" clip-path="url(#clip0_2255_16593)">
<g opacity="0.4" filter="url(#filter0_f_2255_16593)">
<g filter="url(#filter1_f_2255_16593)">
<path d="M1169.54 356.822C1368.3 377.336 1451.05 256.374 1354.36 86.6459C1257.67 -83.0819 1018.16 -237.302 819.401 -257.815C620.64 -278.329 537.893 -157.367 634.582 12.3611C731.27 182.089 970.781 336.309 1169.54 356.822Z" fill="#D7007F"/>
</g>
<g filter="url(#filter2_f_2255_16593)">
<path d="M1169.54 356.822C1368.3 377.336 1451.05 256.374 1354.36 86.6459C1257.67 -83.0819 1018.16 -237.302 819.401 -257.815C620.64 -278.329 537.893 -157.367 634.582 12.3611C731.27 182.089 970.781 336.309 1169.54 356.822Z" fill="#D7007F"/>
</g>
<g filter="url(#filter3_f_2255_16593)">
<path d="M1241.21 574.524C1333.93 584.094 1372.54 527.665 1327.43 448.487C1282.32 369.308 1170.6 297.364 1077.87 287.794C985.144 278.225 946.542 334.654 991.648 413.833C1036.75 493.012 1148.49 564.955 1241.21 574.524Z" fill="#5FA8FF"/>
</g>
<g filter="url(#filter4_f_2255_16593)">
<path d="M548.333 493.315C823.418 538.709 963.199 391.578 860.543 164.69C757.888 -62.1985 451.667 -282.928 176.583 -328.322C-98.5018 -373.715 -238.284 -226.586 -135.628 0.302582C-32.9717 227.192 273.248 447.921 548.333 493.315Z" fill="#6E3FF3"/>
</g>
<g opacity="0.6" filter="url(#filter5_f_2255_16593)">
<path d="M548.333 493.315C823.418 538.709 963.199 391.578 860.543 164.69C757.887 -62.1985 451.667 -282.928 176.583 -328.322C-98.5018 -373.715 -238.284 -226.586 -135.628 0.302582C-32.9717 227.192 273.248 447.921 548.333 493.315Z" fill="#6E3FF3"/>
</g>
</g>
<g opacity="0.4">
<g opacity="0.4" filter="url(#filter6_f_2255_16593)">
<path d="M117.789 95.877L-179.219 -9.43433L-30.7146 201.187L526.173 596.103L823.181 701.414L674.677 490.792L117.789 95.877Z" fill="url(#paint0_linear_2255_16593)"/>
</g>
<g opacity="0.3" filter="url(#filter7_f_2255_16593)">
<path d="M867.572 314.531L1049.69 157.271L746.162 251.627L139.111 566.149L-43.0039 723.41L260.522 629.054L867.572 314.531Z" fill="url(#paint1_linear_2255_16593)"/>
</g>
<g opacity="0.3" filter="url(#filter8_f_2255_16593)">
<path d="M-225.106 377.445L-407.223 534.711L-103.699 440.351L503.346 125.816L685.46 -31.4506L381.937 62.9089L-225.106 377.445Z" fill="url(#paint2_linear_2255_16593)"/>
</g>
</g>
<g style="mix-blend-mode:overlay" filter="url(#filter9_f_2255_16593)">
<path d="M245.406 516.038L635.868 943.795L296.336 451.874L205.711 337.701L-116.844 -4.50513L154.781 401.865L245.406 516.038Z" fill="#091135"/>
</g>
<g style="mix-blend-mode:overlay" filter="url(#filter10_f_2255_16593)">
<path d="M951.832 459.625L1342.29 887.383L1002.76 395.46L756.081 84.6818L433.525 -257.525L705.151 148.845L951.832 459.625Z" fill="#091135"/>
</g>
<g style="mix-blend-mode:overlay" filter="url(#filter11_f_2255_16593)">
<path d="M418.284 27.3637L808.745 455.121L469.213 -36.7997L378.589 -150.974L56.0332 -493.179L327.659 -86.8093L418.284 27.3637Z" fill="url(#paint3_linear_2255_16593)"/>
</g>
<g style="mix-blend-mode:overlay" filter="url(#filter12_f_2255_16593)">
<path d="M972.286 144.945L586.902 -216.64L922.019 199.182L1011.47 295.695L1329.82 584.963L1061.73 241.456L972.286 144.945Z" fill="#091135"/>
</g>
<g style="mix-blend-mode:overlay" filter="url(#filter13_f_2255_16593)">
<path d="M767.335 326.069L381.949 -35.5164L717.067 380.306L984.237 668.577L1302.59 957.846L1034.51 614.341L767.335 326.069Z" fill="#091135"/>
</g>
<g style="mix-blend-mode:overlay" filter="url(#filter14_f_2255_16593)">
<path d="M445.442 381.016L60.0566 19.4322L395.175 435.255L638.648 697.958L957.009 987.227L688.916 643.72L445.442 381.016Z" fill="#091135"/>
</g>
<g style="mix-blend-mode:overlay" filter="url(#filter15_f_2255_16593)">
<path d="M170.098 486.191L-215.287 124.607L119.831 540.43L209.278 636.941L527.639 926.209L259.545 582.704L170.098 486.191Z" fill="url(#paint4_linear_2255_16593)"/>
</g>
</g>
<defs>
<filter id="filter0_f_2255_16593" x="-469.324" y="-636.545" width="2164.1" height="1512.13" filterUnits="userSpaceOnUse" color-interpolation-filters="sRGB">
<feFlood flood-opacity="0" result="BackgroundImageFix"/>
<feBlend mode="normal" in="SourceGraphic" in2="BackgroundImageFix" result="shape"/>
<feGaussianBlur stdDeviation="150" result="effect1_foregroundBlur_2255_16593"/>
</filter>
<filter id="filter1_f_2255_16593" x="302.134" y="-552.116" width="1384.68" height="1203.24" filterUnits="userSpaceOnUse" color-interpolation-filters="sRGB">
<feFlood flood-opacity="0" result="BackgroundImageFix"/>
<feBlend mode="normal" in="SourceGraphic" in2="BackgroundImageFix" result="shape"/>
<feGaussianBlur stdDeviation="146.017" result="effect1_foregroundBlur_2255_16593"/>
</filter>
<filter id="filter2_f_2255_16593" x="302.134" y="-552.116" width="1384.68" height="1203.24" filterUnits="userSpaceOnUse" color-interpolation-filters="sRGB">
<feFlood flood-opacity="0" result="BackgroundImageFix"/>
<feBlend mode="normal" in="SourceGraphic" in2="BackgroundImageFix" result="shape"/>
<feGaussianBlur stdDeviation="146.017" result="effect1_foregroundBlur_2255_16593"/>
</filter>
<filter id="filter3_f_2255_16593" x="780.471" y="94.4123" width="758.137" height="673.494" filterUnits="userSpaceOnUse" color-interpolation-filters="sRGB">
<feFlood flood-opacity="0" result="BackgroundImageFix"/>
<feBlend mode="normal" in="SourceGraphic" in2="BackgroundImageFix" result="shape"/>
<feGaussianBlur stdDeviation="96.162" result="effect1_foregroundBlur_2255_16593"/>
</filter>
<filter id="filter4_f_2255_16593" x="-368.862" y="-536.083" width="1462.64" height="1237.16" filterUnits="userSpaceOnUse" color-interpolation-filters="sRGB">
<feFlood flood-opacity="0" result="BackgroundImageFix"/>
<feBlend mode="normal" in="SourceGraphic" in2="BackgroundImageFix" result="shape"/>
<feGaussianBlur stdDeviation="99.769" result="effect1_foregroundBlur_2255_16593"/>
</filter>
<filter id="filter5_f_2255_16593" x="-368.862" y="-536.083" width="1462.64" height="1237.16" filterUnits="userSpaceOnUse" color-interpolation-filters="sRGB">
<feFlood flood-opacity="0" result="BackgroundImageFix"/>
<feBlend mode="normal" in="SourceGraphic" in2="BackgroundImageFix" result="shape"/>
<feGaussianBlur stdDeviation="99.769" result="effect1_foregroundBlur_2255_16593"/>
</filter>
<filter id="filter6_f_2255_16593" x="-339.219" y="-169.434" width="1322.4" height="1030.85" filterUnits="userSpaceOnUse" color-interpolation-filters="sRGB">
<feFlood flood-opacity="0" result="BackgroundImageFix"/>
<feBlend mode="normal" in="SourceGraphic" in2="BackgroundImageFix" result="shape"/>
<feGaussianBlur stdDeviation="80" result="effect1_foregroundBlur_2255_16593"/>
</filter>
<filter id="filter7_f_2255_16593" x="-155.004" y="45.2715" width="1316.69" height="790.139" filterUnits="userSpaceOnUse" color-interpolation-filters="sRGB">
<feFlood flood-opacity="0" result="BackgroundImageFix"/>
<feBlend mode="normal" in="SourceGraphic" in2="BackgroundImageFix" result="shape"/>
<feGaussianBlur stdDeviation="56" result="effect1_foregroundBlur_2255_16593"/>
</filter>
<filter id="filter8_f_2255_16593" x="-519.223" y="-143.451" width="1316.68" height="790.162" filterUnits="userSpaceOnUse" color-interpolation-filters="sRGB">
<feFlood flood-opacity="0" result="BackgroundImageFix"/>
<feBlend mode="normal" in="SourceGraphic" in2="BackgroundImageFix" result="shape"/>
<feGaussianBlur stdDeviation="56" result="effect1_foregroundBlur_2255_16593"/>
</filter>
<filter id="filter9_f_2255_16593" x="-170.844" y="-58.5059" width="860.712" height="1056.3" filterUnits="userSpaceOnUse" color-interpolation-filters="sRGB">
<feFlood flood-opacity="0" result="BackgroundImageFix"/>
<feBlend mode="normal" in="SourceGraphic" in2="BackgroundImageFix" result="shape"/>
<feGaussianBlur stdDeviation="27" result="effect1_foregroundBlur_2255_16593"/>
</filter>
<filter id="filter10_f_2255_16593" x="379.525" y="-311.525" width="1016.77" height="1252.91" filterUnits="userSpaceOnUse" color-interpolation-filters="sRGB">
<feFlood flood-opacity="0" result="BackgroundImageFix"/>
<feBlend mode="normal" in="SourceGraphic" in2="BackgroundImageFix" result="shape"/>
<feGaussianBlur stdDeviation="27" result="effect1_foregroundBlur_2255_16593"/>
</filter>
<filter id="filter11_f_2255_16593" x="2.0332" y="-547.18" width="860.712" height="1056.3" filterUnits="userSpaceOnUse" color-interpolation-filters="sRGB">
<feFlood flood-opacity="0" result="BackgroundImageFix"/>
<feBlend mode="normal" in="SourceGraphic" in2="BackgroundImageFix" result="shape"/>
<feGaussianBlur stdDeviation="27" result="effect1_foregroundBlur_2255_16593"/>
</filter>
<filter id="filter12_f_2255_16593" x="514.902" y="-288.641" width="886.92" height="945.604" filterUnits="userSpaceOnUse" color-interpolation-filters="sRGB">
<feFlood flood-opacity="0" result="BackgroundImageFix"/>
<feBlend mode="normal" in="SourceGraphic" in2="BackgroundImageFix" result="shape"/>
<feGaussianBlur stdDeviation="36" result="effect1_foregroundBlur_2255_16593"/>
</filter>
<filter id="filter13_f_2255_16593" x="309.949" y="-107.516" width="1064.64" height="1137.36" filterUnits="userSpaceOnUse" color-interpolation-filters="sRGB">
<feFlood flood-opacity="0" result="BackgroundImageFix"/>
<feBlend mode="normal" in="SourceGraphic" in2="BackgroundImageFix" result="shape"/>
<feGaussianBlur stdDeviation="36" result="effect1_foregroundBlur_2255_16593"/>
</filter>
<filter id="filter14_f_2255_16593" x="-11.9434" y="-52.5684" width="1040.95" height="1111.79" filterUnits="userSpaceOnUse" color-interpolation-filters="sRGB">
<feFlood flood-opacity="0" result="BackgroundImageFix"/>
<feBlend mode="normal" in="SourceGraphic" in2="BackgroundImageFix" result="shape"/>
<feGaussianBlur stdDeviation="36" result="effect1_foregroundBlur_2255_16593"/>
</filter>
<filter id="filter15_f_2255_16593" x="-287.287" y="52.6074" width="886.926" height="945.602" filterUnits="userSpaceOnUse" color-interpolation-filters="sRGB">
<feFlood flood-opacity="0" result="BackgroundImageFix"/>
<feBlend mode="normal" in="SourceGraphic" in2="BackgroundImageFix" result="shape"/>
<feGaussianBlur stdDeviation="36" result="effect1_foregroundBlur_2255_16593"/>
</filter>
<linearGradient id="paint0_linear_2255_16593" x1="674.677" y1="490.791" x2="191.9" y2="-12.3973" gradientUnits="userSpaceOnUse">
<stop stop-color="#33CFFF"/>
<stop offset="0.5" stop-color="#116B97"/>
<stop offset="1" stop-color="#33CFFF"/>
</linearGradient>
<linearGradient id="paint1_linear_2255_16593" x1="260.522" y1="629.054" x2="428.758" y2="141.991" gradientUnits="userSpaceOnUse">
<stop stop-color="#5F57FF"/>
<stop offset="0.5" stop-color="#116B97"/>
<stop offset="1" stop-color="#33CFFF"/>
</linearGradient>
<linearGradient id="paint2_linear_2255_16593" x1="381.938" y1="62.9089" x2="213.689" y2="549.986" gradientUnits="userSpaceOnUse">
<stop stop-color="#5F57FF"/>
<stop offset="0.5" stop-color="#116B97"/>
<stop offset="1" stop-color="#33CFFF"/>
</linearGradient>
<linearGradient id="paint3_linear_2255_16593" x1="764.051" y1="398.813" x2="-104.664" y2="-290.726" gradientUnits="userSpaceOnUse">
<stop stop-opacity="0"/>
<stop offset="0.772"/>
</linearGradient>
<linearGradient id="paint4_linear_2255_16593" x1="-171.174" y1="172.204" x2="580.658" y2="869.003" gradientUnits="userSpaceOnUse">
<stop stop-opacity="0"/>
<stop offset="0.772"/>
</linearGradient>
<clipPath id="clip0_2255_16593">
<rect width="1802" height="1494" fill="white" transform="matrix(1 0 0 -1 -207 1494)"/>
</clipPath>
</defs>
</svg>
